<?xml version="1.0" encoding="UTF-8" standalone="no"?>
<svg
   xmlns:dc="http://purl.org/dc/elements/1.1/"
   xmlns:cc="http://creativecommons.org/ns#"
   xmlns:rdf="http://www.w3.org/1999/02/22-rdf-syntax-ns#"
   xmlns:svg="http://www.w3.org/2000/svg"
   xmlns="http://www.w3.org/2000/svg"
   viewBox="0 0 299.84 79"
   height="79"
   width="299.84"
   xml:space="preserve"
   id="svg2"
   version="1.1"><metadata
     id="metadata8"><rdf:RDF><cc:Work
         rdf:about=""><dc:format>image/svg+xml</dc:format><dc:type
           rdf:resource="http://purl.org/dc/dcmitype/StillImage" /></cc:Work></rdf:RDF></metadata><defs
     id="defs6"><clipPath
       id="clipPath14"
       clipPathUnits="userSpaceOnUse"><path
         id="path12"
         d="M 0,7.710001 H 224.87999 V 66.96 L 0,66.96 Z" /></clipPath><clipPath
       id="clipPath26"
       clipPathUnits="userSpaceOnUse"><path
         style="clip-rule:evenodd"
         id="path24"
         d="M 0,0 H 937.5 V 246.875 H 0 Z" /></clipPath><clipPath
       id="clipPath38"
       clipPathUnits="userSpaceOnUse"><path
         style="clip-rule:evenodd"
         id="path36"
         d="M 0,0 H 937.5 V 246.875 H 0 Z" /></clipPath><clipPath
       id="clipPath50"
       clipPathUnits="userSpaceOnUse"><path
         style="clip-rule:evenodd"
         id="path48"
         d="M 0,0 H 937.5 V 246.875 H 0 Z" /></clipPath><clipPath
       id="clipPath62"
       clipPathUnits="userSpaceOnUse"><path
         style="clip-rule:evenodd"
         id="path60"
         d="M 0,0 H 937.5 V 246.875 H 0 Z" /></clipPath><clipPath
       id="clipPath74"
       clipPathUnits="userSpaceOnUse"><path
         style="clip-rule:evenodd"
         id="path72"
         d="M 0,0 H 937.5 V 246.875 H 0 Z" /></clipPath><clipPath
       id="clipPath86"
       clipPathUnits="userSpaceOnUse"><path
         style="clip-rule:evenodd"
         id="path84"
         d="M 0,0 H 937.5 V 246.875 H 0 Z" /></clipPath><clipPath
       id="clipPath98"
       clipPathUnits="userSpaceOnUse"><path
         style="clip-rule:evenodd"
         id="path96"
         d="M 0,0 H 937.5 V 246.875 H 0 Z" /></clipPath><clipPath
       id="clipPath110"
       clipPathUnits="userSpaceOnUse"><path
         style="clip-rule:evenodd"
         id="path108"
         d="M 0,0 H 937.5 V 246.875 H 0 Z" /></clipPath><clipPath
       id="clipPath122"
       clipPathUnits="userSpaceOnUse"><path
         style="clip-rule:evenodd"
         id="path120"
         d="M 0,0 H 937.5 V 246.875 H 0 Z" /></clipPath><clipPath
       id="clipPath134"
       clipPathUnits="userSpaceOnUse"><path
         style="clip-rule:evenodd"
         id="path132"
         d="M 0,0 H 937.5 V 246.875 H 0 Z" /></clipPath></defs><g
     clip-path="url(#clipPath14)"
     transform="matrix(1.3333333,0,0,-1.3333333,0,89.28)"
     id="g10"><g
       id="g16"><g
         transform="matrix(0.23999999,0,0,-0.23999999,0,66.959999)"
         id="g18"><g
           id="g20"><g
             clip-path="url(#clipPath26)"
             id="g22"><g
               transform="scale(3.125)"
               id="g28"><path
                 id="path30"
                 style="fill:#ffffff;fill-opacity:1;fill-rule:nonzero;stroke:none"
                 d="M 0,0 H 300 V 79 H 0 Z" /></g></g></g><g
           id="g32"><g
             clip-path="url(#clipPath38)"
             id="g34"><g
               transform="scale(3.125)"
               id="g40"><path
                 id="path42"
                 style="fill:#ffffff;fill-opacity:1;fill-rule:nonzero;stroke:none"
                 d="M 0,0 H 300 V 79 H 0 Z" /></g></g></g><g
           id="g44"><g
             clip-path="url(#clipPath50)"
             id="g46"><g
               transform="matrix(6.0424805,0,0,6.0424805,-38.821568,-9.5114927)"
               id="g52"><path
                 id="path54"
                 style="fill:#033257;fill-opacity:1;fill-rule:nonzero;stroke:none"
                 d="M 0,0 H 168 V 44 H 0 Z" /></g></g></g><g
           id="g56"><g
             clip-path="url(#clipPath62)"
             id="g58"><g
               transform="matrix(6.0424805,0,0,6.0424805,-38.821568,-9.5114927)"
               id="g64"><path
                 id="path66"
                 style="fill:#033257;fill-opacity:1;fill-rule:nonzero;stroke:none"
                 d="M 7.1999998,6.6999998 H 31.5 V 9.8999996 L 11.9,33.799999 H 32 v 3.5 H 6.6999998 V 34.099998 L 26.299999,10.2 H 7.1999998 Z" /></g></g></g><g
           id="g68"><g
             clip-path="url(#clipPath74)"
             id="g70"><g
               transform="matrix(6.0424805,0,0,6.0424805,-38.821568,-9.5114927)"
               id="g76"><path
                 id="path78"
                 style="fill:#033257;fill-opacity:1;fill-rule:nonzero;stroke:none"
                 d="M 48.400002,10.8 42.700001,26 H 54.099998 Z M 46,6.6999998 h 4.700001 L 62.5,37.299999 H 58.200001 L 55.400002,29.5 h -14 l -2.8,7.799999 h -4.400001 z" /></g></g></g><g
           id="g80"><g
             clip-path="url(#clipPath86)"
             id="g82"><g
               transform="matrix(6.0424805,0,0,6.0424805,-38.821568,-9.5114927)"
               id="g88"><path
                 id="path90"
                 style="fill:#033257;fill-opacity:1;fill-rule:nonzero;stroke:none"
                 d="m 71.199997,22.700001 v 11.200001 h 6.699997 c 2.300003,0 3.900001,-0.5 5,-1.400002 1.099998,-0.9 1.599998,-2.299999 1.599998,-4.200001 0,-1.899999 -0.5,-3.299999 -1.599998,-4.200001 -1.099999,-0.899999 -2.800003,-1.399999 -5,-1.399999 h -6.699997 z m 0,-12.600001 v 9.199999 h 6.199997 c 2,0 3.599998,-0.399999 4.599998,-1.1 1,-0.799999 1.5,-1.9 1.5,-3.5 0,-1.5 -0.5,-2.7 -1.5,-3.5 -1,-0.8 -2.5,-1.1 -4.599998,-1.1 H 71.199997 Z M 67,6.6999998 h 10.699997 c 3.199997,0 5.599998,0.6999998 7.400001,2 C 86.799995,10 87.699997,11.9 87.699997,14.299999 c 0,1.9 -0.400002,3.4 -1.300003,4.5 C 85.499992,19.9 84.199997,20.599998 82.499992,20.9 c 2.099999,0.399999 3.699997,1.299999 4.800003,2.7 1.099999,1.4 1.699997,3.100001 1.699997,5.199999 0,2.700001 -0.900001,4.799999 -2.800003,6.299999 -1.900001,1.5 -4.5,2.200001 -8,2.200001 H 67 Z" /></g></g></g><g
           id="g92"><g
             clip-path="url(#clipPath98)"
             id="g94"><g
               transform="matrix(6.0424805,0,0,6.0424805,-38.821568,-9.5114927)"
               id="g100"><path
                 id="path102"
                 style="fill:#033257;fill-opacity:1;fill-rule:nonzero;stroke:none"
                 d="M 99.900002,22.700001 V 33.900002 H 106.6 c 2.2,0 3.9,-0.5 5,-1.400002 1.1,-0.9 1.6,-2.299999 1.6,-4.200001 C 113.2,26.4 112.7,25 111.6,24.099998 c -1.1,-0.899999 -2.8,-1.399999 -5,-1.399999 h -6.699998 z m 0,-12.600001 v 9.199999 H 106.1 c 2,0 3.6,-0.399999 4.6,-1.1 1,-0.799999 1.5,-1.9 1.5,-3.5 0,-1.5 -0.5,-2.7 -1.5,-3.5 -1,-0.8 -2.5,-1.1 -4.6,-1.1 H 99.900002 Z M 95.699997,6.6999998 h 10.699993 c 3.2,0 5.6,0.6999998 7.40001,2 C 115.49999,10 116.39999,11.9 116.39999,14.299999 c 0,1.9 -0.4,3.4 -1.3,4.5 -0.9,1.100001 -2.2,1.799999 -3.9,2.100001 2.1,0.399999 3.7,1.299999 4.8,2.7 1.1,1.4 1.7,3.100001 1.7,5.199999 0,2.700001 -0.9,4.799999 -2.8,6.299999 -1.9,1.5 -4.5,2.200001 -8,2.200001 H 95.699997 Z" /></g></g></g><g
           id="g104"><g
             clip-path="url(#clipPath110)"
             id="g106"><g
               transform="matrix(6.0424805,0,0,6.0424805,-38.821568,-9.5114927)"
               id="g112"><path
                 id="path114"
                 style="fill:#033257;fill-opacity:1;fill-rule:nonzero;stroke:none"
                 d="M 136.39999,6.6999998 H 141 l 7.3,11.0000012 7.4,-11.0000012 h 4.40001 L 150.5,21 161.3,37.299999 h -4.6 L 148.2,24.5 139.7,37.299999 h -4.5 L 146,21.1 Z" /></g></g></g><g
           id="g116"><g
             clip-path="url(#clipPath122)"
             id="g118"><g
               transform="matrix(6.0424805,0,0,6.0424805,-38.821568,-9.5114927)"
               id="g124"><path
                 id="path126"
                 style="fill:#033257;fill-opacity:1;fill-rule:nonzero;stroke:none"
                 d="m 124.3,6.6999998 h 4.2 V 37.299998 h -4.2 z" /></g></g></g><g
           id="g128"><g
             clip-path="url(#clipPath134)"
             id="g130"><g
               transform="matrix(3.125,0,0,3.125,34.082031,-21.875)"
               id="g136"><text
                 id="text140"
                 style="font-variant:normal;font-weight:normal;font-size:66.66000366px;font-family:Gotham;-inkscape-font-specification:Gotham-Book;writing-mode:lr-tb;fill:#ffffff;fill-opacity:1;fill-rule:nonzero;stroke:none"
                 transform="translate(0,70)"><tspan
                   id="tspan138"
                   y="0"
                   x="0 42.660065 90.386017 133.04608 185.17134 229.8311">SYSDEX</tspan></text>
</g></g></g></g><path
         id="path142"
         style="fill:#000000;fill-opacity:0;fill-rule:nonzero;stroke:none"
         d="M -9.36991,5.4272428 H 234.36991 V 69.24276 H -9.36991 Z" /></g></g></svg>
